<?xml version="1.0" encoding="UTF-8"?>
<svg id="Calque_1" xmlns="http://www.w3.org/2000/svg" version="1.1" viewBox="0 0 595.28 289.61">
  <!-- Generator: Adobe Illustrator 29.7.0, SVG Export Plug-In . SVG Version: 2.1.1 Build 138)  -->
  <defs>
    <style>
      .st0 {
        fill: #1d1d1b;
      }
    </style>
  </defs>
  <path class="st0" d="M327.64,212.61c-3.69,2.48-7.87,4.65-12.55,6.52-4.69,1.88-9.94,3.41-15.76,4.62s-12.28,1.81-19.38,1.81c-10.71,0-20.25-1.48-28.62-4.42-8.37-2.94-15.46-7.16-21.28-12.65-5.82-5.49-10.28-12.12-13.35-19.88-3.08-7.76-4.62-16.39-4.62-25.9,0-12.18,2.11-23.57,6.32-34.14,4.22-10.57,10.14-19.8,17.77-27.71,7.63-7.89,16.67-14.12,27.11-18.68,10.44-4.55,21.89-6.82,34.34-6.82s23.16,1.9,32.53,5.72c9.37,3.82,16.53,8.54,21.49,14.16l-32.33,33.33c-2.41-3.48-5.59-6.05-9.54-7.73-3.95-1.67-8.4-2.51-13.35-2.51s-9.71,1.04-13.85,3.11c-4.15,2.08-7.7,4.89-10.64,8.43-2.94,3.55-5.22,7.66-6.83,12.35-1.61,4.69-2.41,9.71-2.41,15.06,0,6.97,2.17,12.85,6.53,17.67,4.35,4.82,10.87,7.24,19.58,7.24,5.09,0,9.84-1.07,14.25-3.21,4.42-2.14,8.24-4.75,11.45-7.83l22.9,34.13c-2.81,2.41-6.06,4.86-9.74,7.33Z"/>
  <polygon class="st0" points="479.32 55.48 424.07 168.53 418.79 95.23 369.93 95.23 388.12 221.54 439.93 221.54 534.93 55.48 479.32 55.48"/>
  <path class="st0" d="M188.08,212.61c-3.69,2.48-7.87,4.65-12.55,6.52-4.69,1.88-9.94,3.41-15.76,4.62-5.82,1.21-12.28,1.81-19.38,1.81-10.71,0-20.25-1.48-28.62-4.42-8.37-2.94-15.46-7.16-21.28-12.65-5.82-5.49-10.28-12.12-13.35-19.88-3.08-7.76-4.62-16.39-4.62-25.9,0-12.18,2.11-23.57,6.32-34.14,4.22-10.57,10.14-19.8,17.77-27.71,7.63-7.89,16.67-14.12,27.11-18.68,10.44-4.55,21.89-6.82,34.34-6.82s23.16,1.9,32.53,5.72c9.37,3.82,16.53,8.54,21.49,14.16l-32.33,33.33c-2.41-3.48-5.59-6.05-9.54-7.73-3.95-1.67-8.4-2.51-13.35-2.51s-9.71,1.04-13.85,3.11c-4.15,2.08-7.7,4.89-10.64,8.43-2.94,3.55-5.22,7.66-6.83,12.35-1.61,4.69-2.41,9.71-2.41,15.06,0,6.97,2.17,12.85,6.53,17.67,4.35,4.82,10.87,7.24,19.58,7.24,5.09,0,9.84-1.07,14.25-3.21,4.42-2.14,8.24-4.75,11.45-7.83l22.9,34.13c-2.81,2.41-6.06,4.86-9.74,7.33Z"/>
</svg>